<?xml version="1.0" encoding="utf-8"?>
<svg width="131" height="40" viewBox="0 0 131 40" fill="none" xmlns="http://www.w3.org/2000/svg">
  <circle cx="17.5" cy="19.5" r="13.5" fill="url(#paint0_linear_425_166)"/>
  <path d="M10.4286 15.1351C14.6075 14.0893 18.7766 13.046 22.9559 12C23.1752 12.848 23.3923 13.6879 23.6118 14.5371C20.3486 15.3537 17.0907 16.1692 13.8329 16.9846C13.8336 16.9898 13.8342 16.9949 13.835 17.0001H23.9228C23.9245 17.037 23.9274 17.0668 23.9274 17.0969C23.9276 19.2878 23.9287 21.4789 23.927 23.6698C23.926 24.8933 22.9172 25.9325 21.6794 25.9896C21.5589 25.9952 21.4381 25.9986 21.3174 25.9986C18.6832 25.9992 16.049 25.9995 13.415 25.9986C12.7566 25.9984 12.1814 25.7789 11.7114 25.3255C11.2836 24.9126 11.0414 24.4063 11.0043 23.8126C10.9969 23.6941 10.9946 23.5752 10.9946 23.4565C10.994 21.5189 10.9931 19.5814 10.9959 17.644C10.9963 17.4423 10.9738 17.2479 10.9213 17.0522C10.7567 16.4395 10.6021 15.8244 10.4438 15.21C10.4385 15.1894 10.4353 15.1682 10.4286 15.1351ZM11.6049 19.6276V19.7292C11.6049 21.0375 11.6047 22.3459 11.6057 23.6541C11.6057 23.7256 11.612 23.7977 11.6228 23.8685C11.7616 24.7735 12.5004 25.3983 13.4305 25.3983C16.0963 25.3983 18.7622 25.3983 21.4281 25.398C21.5011 25.398 21.5742 25.3946 21.6469 25.3893C22.5983 25.3211 23.3167 24.5605 23.3167 23.621C23.3167 22.3282 23.3167 21.0357 23.3167 19.7429V19.6276H11.6049ZM13.4705 17.6036C13.4906 17.6357 13.5024 17.6568 13.5162 17.6763C13.8161 18.1019 14.1171 18.5267 14.4147 18.9539C14.4495 19.0038 14.4836 19.0237 14.5453 19.0232C14.9044 19.0203 15.2635 19.0218 15.6225 19.0215C15.6496 19.0215 15.6768 19.0177 15.7073 19.0153C15.7006 18.998 15.6991 18.9882 15.6939 18.9809C15.3824 18.5369 15.0714 18.0923 14.7566 17.6504C14.7379 17.6241 14.6894 17.6062 14.6543 17.6053C14.4605 17.601 14.2666 17.6032 14.0728 17.6032C13.877 17.6032 13.6809 17.6032 13.4703 17.6032L13.4705 17.6036ZM18.6032 19.0218C18.5813 18.9858 18.5696 18.9638 18.5555 18.9437C18.2552 18.5175 17.9536 18.0923 17.6552 17.6648C17.6218 17.6171 17.5873 17.6021 17.5308 17.6023C17.1681 17.6046 16.8053 17.6034 16.4426 17.6036C16.419 17.6036 16.3953 17.6059 16.3602 17.6077C16.3772 17.634 16.3865 17.6494 16.3966 17.6639C16.6725 18.0572 16.9565 18.4452 17.2204 18.8462C17.3149 18.9897 17.4181 19.032 17.5838 19.0256C17.9169 19.0126 18.2508 19.0217 18.603 19.0217L18.6032 19.0218ZM19.2443 17.6036C19.2651 17.6367 19.2767 17.6575 19.2903 17.6771C19.5906 18.103 19.8922 18.5281 20.19 18.9555C20.2253 19.0064 20.2614 19.0235 20.3217 19.023C20.6779 19.0205 21.0341 19.0218 21.3903 19.0215C21.418 19.0215 21.4455 19.0181 21.4814 19.0158C21.4709 18.9946 21.4659 18.9803 21.4577 18.9685C21.1494 18.529 20.8415 18.0893 20.5302 17.6519C20.5114 17.6256 20.4641 17.6062 20.4297 17.6055C20.2232 17.6012 20.0163 17.6034 19.8095 17.6034C19.6263 17.6034 19.443 17.6034 19.2443 17.6034V17.6036ZM21.0964 14.5442C21.0757 14.5228 21.0679 14.513 21.0586 14.505C20.6476 14.1524 20.2369 13.7993 19.824 13.4488C19.8032 13.4312 19.7605 13.4237 19.7328 13.4304C19.3634 13.52 18.9948 13.6132 18.6259 13.7056C18.6124 13.709 18.6 13.7159 18.5652 13.7298C18.5948 13.749 18.612 13.7576 18.6261 13.7696C18.9782 14.07 19.3372 14.3632 19.6782 14.6753C19.82 14.8051 19.9441 14.8502 20.1352 14.7906C20.4456 14.6937 20.7659 14.6272 21.0964 14.5442ZM15.4986 15.9453C15.4836 15.9258 15.4778 15.9147 15.4691 15.907C15.0647 15.562 14.6591 15.2185 14.2572 14.8708C14.2072 14.8276 14.1683 14.8209 14.1064 14.837C13.8061 14.9153 13.5043 14.9878 13.2033 15.0628C13.1338 15.0801 13.0649 15.099 12.9773 15.1221C13.0761 15.2072 13.1613 15.2803 13.2462 15.3533C13.5732 15.6341 13.8995 15.9157 14.2286 16.194C14.2572 16.2183 14.309 16.2395 14.3424 16.2316C14.7242 16.1407 15.1046 16.044 15.4986 15.9453ZM15.7861 14.4169C15.7966 14.4366 15.7982 14.4435 15.8026 14.4471C16.2155 14.8019 16.6278 15.1573 17.0436 15.5089C17.0703 15.5314 17.1268 15.5365 17.164 15.5276C17.5122 15.4442 17.8591 15.3562 18.2063 15.269C18.235 15.2619 18.2627 15.2517 18.3029 15.2393C17.8919 14.8874 17.4905 14.5485 17.0961 14.2022C17.013 14.1293 16.9401 14.1147 16.841 14.1511C16.7733 14.1761 16.7002 14.187 16.6295 14.2048C16.3508 14.2749 16.0721 14.3449 15.7861 14.4171V14.4169ZM11.6095 19.0162H12.815C12.8142 19.0048 12.8159 18.9974 12.8131 18.9933C12.4962 18.5418 12.1793 18.0903 11.8607 17.6397C11.8485 17.6224 11.8223 17.6068 11.8015 17.6053C11.7393 17.6008 11.6765 17.6036 11.6097 17.6036V19.0162H11.6095ZM11.5232 16.9402C11.9203 16.8407 12.308 16.7436 12.7209 16.6401C12.6854 16.6142 12.6667 16.6025 12.6501 16.5883C12.2694 16.2639 11.8889 15.9393 11.5087 15.6146C11.3817 15.5062 11.3361 15.5015 11.1727 15.5868C11.2888 16.0348 11.405 16.484 11.5232 16.9404V16.9402ZM22.1289 17.607C22.4405 18.0493 22.7465 18.4745 23.0405 18.9076C23.1138 19.0156 23.1924 19.0427 23.3106 19.011V17.6068H22.1289V17.607ZM22.5126 12.7325C22.1303 12.8287 21.7588 12.922 21.3871 13.0154L21.3783 13.042C21.3947 13.052 21.4127 13.0601 21.427 13.0723C21.8052 13.3944 22.1868 13.7125 22.5581 14.042C22.6562 14.1289 22.74 14.1609 22.8633 14.0891C22.7474 13.6408 22.6306 13.1891 22.5124 12.7323L22.5126 12.7325Z" fill="white"/>
  <path d="M16.3951 20.7748C16.4152 20.7842 16.444 20.7953 16.4707 20.8103C17.2734 21.2656 18.076 21.7212 18.8785 22.1767C19.0242 22.2593 19.1698 22.3421 19.3153 22.4252C19.4252 22.4881 19.4256 22.572 19.3143 22.6353C18.4984 23.0994 17.6821 23.5628 16.8661 24.0263C16.7341 24.1013 16.6026 24.1768 16.4699 24.2506C16.3562 24.3139 16.2827 24.2744 16.2827 24.148C16.2821 23.0681 16.2827 21.9881 16.2819 20.9081C16.2819 20.8371 16.3027 20.7859 16.3951 20.7748Z" fill="white"/>
  <defs>
    <linearGradient id="paint0_linear_425_166" x1="4.66832" y1="24.1098" x2="34.1078" y2="13.9886" gradientUnits="userSpaceOnUse">
      <stop stop-color="#F89E00"/>
      <stop offset="1" stop-color="#DA2F68"/>
    </linearGradient>
    <linearGradient x1="0" x2="0" y1="0" y2="1" id="gradient-0">
      <stop offset="0" style="stop-color: rgb(248, 158, 0);"/>
      <stop offset="1" style="stop-color: rgb(218, 47, 104);"/>
    </linearGradient>
  </defs>
  <path d="M 39.795 22.734 L 39.795 31.124 L 35.112 31.124 L 35.112 6.958 L 39.795 6.958 L 39.795 14.348 L 41.021 12.376 L 44.39 6.958 L 50.033 6.958 L 45.973 13.364 L 43.207 17.729 L 46.437 23.418 L 50.812 31.124 L 45.162 31.124 L 42.13 25.648 L 40.187 22.136 Z M 54.388 15.283 L 54.388 23.011 L 49.654 23.011 L 49.654 15.283 Z M 49.654 31.124 L 49.654 23.668 L 54.388 23.668 L 54.388 31.124 Z M 51.997 14.688 C 51.634 14.688 51.176 14.569 50.854 14.424 C 50.547 14.256 50.192 13.967 49.951 13.685 C 49.728 13.398 49.513 13.001 49.391 12.657 C 49.287 12.315 49.214 11.873 49.214 11.487 C 49.214 11.125 49.294 10.693 49.4 10.367 C 49.524 10.043 49.745 9.664 49.967 9.389 C 50.208 9.122 50.56 8.832 50.874 8.684 C 51.189 8.535 51.64 8.438 51.997 8.438 C 52.349 8.438 52.792 8.549 53.108 8.687 C 53.411 8.847 53.768 9.129 54.007 9.395 C 54.227 9.668 54.444 10.044 54.568 10.369 C 54.676 10.699 54.753 11.127 54.753 11.487 C 54.753 11.871 54.682 12.309 54.581 12.649 C 54.463 12.994 54.254 13.39 54.038 13.676 C 53.801 13.959 53.444 14.254 53.138 14.424 C 52.816 14.569 52.361 14.688 51.997 14.688 Z M 58.749 18.429 C 58.954 17.9 59.24 17.365 59.541 16.947 C 59.855 16.531 60.277 16.118 60.685 15.823 C 61.098 15.543 61.609 15.294 62.081 15.145 C 62.553 15.008 63.129 14.926 63.647 14.921 C 64.773 14.947 65.862 15.257 66.631 15.756 C 66.843 15.916 67.046 16.105 67.233 16.317 L 66.412 18.069 C 66.624 17.616 66.925 17.145 67.235 16.775 C 67.298 16.704 67.365 16.632 67.435 16.561 C 67.81 17.046 68.109 17.621 68.287 18.223 L 67.715 16.296 C 67.93 16.105 68.16 15.926 68.389 15.775 C 68.806 15.511 69.301 15.279 69.745 15.137 C 70.195 15.006 70.728 14.921 71.201 14.921 C 71.854 14.921 72.517 15.017 73.042 15.173 C 73.58 15.352 74.141 15.668 74.538 16.014 C 74.9 16.357 75.258 16.83 75.505 17.295 C 75.736 17.758 75.933 18.339 76.051 18.906 C 76.132 19.32 76.202 19.803 76.252 20.308 C 76.302 20.812 76.337 21.38 76.357 21.978 L 76.39 23.011 L 71.735 23.011 L 71.69 22.059 C 71.667 21.563 71.629 21.161 71.57 20.801 C 71.515 20.452 71.46 20.222 71.377 20.016 C 71.309 19.784 71.296 19.753 71.157 19.693 C 71.05 19.586 71.012 19.603 70.762 19.603 C 70.365 19.603 70.155 19.635 69.893 19.8 C 69.614 19.932 69.471 20.08 69.283 20.414 C 69.131 20.653 69.032 20.873 68.931 21.175 C 68.828 21.482 68.759 21.774 68.71 22.147 L 68.596 23.011 L 64.014 23.011 L 63.998 22.027 C 63.992 21.666 63.983 21.356 63.968 21.081 C 63.955 20.811 63.937 20.604 63.914 20.418 C 63.893 20.219 63.869 20.119 63.805 19.988 C 63.758 19.86 63.74 19.831 63.653 19.753 C 63.61 19.683 63.624 19.698 63.491 19.668 C 63.34 19.613 63.212 19.603 62.953 19.603 C 62.763 19.603 62.676 19.62 62.497 19.691 C 62.311 19.765 62.194 19.837 62.004 19.999 C 61.806 20.167 61.663 20.32 61.503 20.556 C 61.333 20.792 61.209 21.02 61.08 21.332 C 61.017 21.478 60.971 21.606 60.923 21.762 C 60.875 21.918 60.84 22.051 60.809 22.208 L 60.652 23.011 L 56.048 23.011 L 56.048 15.283 L 59.967 15.283 Z M 71.715 31.124 L 71.715 23.668 L 76.375 23.668 L 76.375 31.124 Z M 64.003 31.124 L 64.003 23.668 L 68.639 23.668 L 68.639 31.124 Z M 56.048 31.124 L 56.048 23.668 L 60.707 23.668 L 60.707 31.124 Z M 83.964 31.425 C 83.313 31.425 82.619 31.317 82.029 31.138 C 81.442 30.948 80.82 30.636 80.305 30.273 C 79.803 29.906 79.307 29.431 78.914 28.942 C 78.532 28.451 78.172 27.848 77.9 27.241 C 77.738 26.87 77.587 26.456 77.474 26.062 C 77.362 25.668 77.267 25.233 77.203 24.817 L 77.027 23.668 L 81.775 23.668 L 81.939 24.458 C 81.999 24.749 82.07 24.978 82.18 25.231 C 82.285 25.484 82.389 25.676 82.541 25.893 C 82.777 26.252 82.956 26.429 83.243 26.574 C 83.506 26.743 83.689 26.772 84.037 26.772 C 84.385 26.772 84.557 26.747 84.801 26.582 C 85.069 26.446 85.22 26.287 85.424 25.941 C 85.563 25.725 85.656 25.532 85.754 25.275 C 85.852 25.017 85.92 24.781 85.976 24.481 L 86.126 23.668 L 90.875 23.668 L 90.699 24.817 C 90.635 25.232 90.541 25.669 90.429 26.064 C 90.314 26.457 90.164 26.872 90.002 27.242 C 89.73 27.848 89.371 28.45 88.992 28.941 C 88.602 29.428 88.108 29.904 87.612 30.271 C 87.101 30.633 86.483 30.952 85.896 31.138 C 85.31 31.323 84.614 31.425 83.964 31.425 Z M 77.886 19.109 C 78.154 18.502 78.512 17.897 78.892 17.405 C 79.283 16.917 79.781 16.44 80.282 16.074 C 80.796 15.712 81.423 15.398 82.014 15.207 C 82.606 15.03 83.305 14.921 83.964 14.921 C 84.623 14.921 85.322 15.03 85.912 15.208 C 86.504 15.4 87.127 15.714 87.638 16.076 C 88.136 16.444 88.629 16.921 89.017 17.409 C 89.395 17.9 89.751 18.504 90.019 19.11 C 90.201 19.536 90.365 20.011 90.485 20.465 C 90.603 20.919 90.696 21.42 90.751 21.899 L 90.879 23.011 L 86.137 23.011 L 86.007 22.171 C 85.953 21.821 85.878 21.545 85.766 21.244 C 85.654 20.947 85.542 20.718 85.372 20.464 C 85.145 20.099 84.973 19.922 84.687 19.775 C 84.427 19.602 84.246 19.574 83.891 19.574 C 83.555 19.574 83.402 19.614 83.148 19.766 C 82.885 19.922 82.715 20.08 82.502 20.439 C 82.338 20.69 82.231 20.917 82.124 21.217 C 82.014 21.522 81.942 21.805 81.89 22.161 L 81.766 23.011 L 77.023 23.011 L 77.151 21.899 C 77.207 21.419 77.3 20.917 77.417 20.465 C 77.538 20.011 77.702 19.536 77.886 19.109 Z M 99.321 11.915 L 94.732 11.915 L 94.732 6.958 L 108.665 6.958 L 108.665 11.915 L 104.028 11.915 L 104.028 23.011 L 99.321 23.011 Z M 99.321 31.124 L 99.321 23.668 L 104.028 23.668 L 104.028 31.124 Z M 110.327 15.283 L 113.317 23.011 L 108.423 23.011 L 105.126 15.283 Z M 116.887 23.668 L 113.72 31.124 L 111.884 31.124 L 108.703 23.668 L 112.215 23.668 L 112.846 21.689 L 113.462 23.668 Z M 120.45 15.283 L 117.167 23.011 L 112.363 23.011 L 115.323 15.283 Z" style="fill: url(#gradient-0); stroke-linecap: square; stroke-width: 5.17911px; text-transform: capitalize; white-space: pre;"/>
</svg>